HIERARCHY
ROOT reference
{
  OFFSET 0 0 0
  CHANNELS 6 Xposition Yposition Zposition Zrotation Xrotation Yrotation
  JOINT Hips
  {
    OFFSET 3.27099 74.0722 82.5407
    CHANNELS 6 Xposition Yposition Zposition Zrotation Xrotation Yrotation
    JOINT Spine
    {
      OFFSET 0 7.31558 0
      CHANNELS 6 Xposition Yposition Zposition Zrotation Xrotation Yrotation
      JOINT Spine1
      {
        OFFSET 0 21.7428 0
        CHANNELS 6 Xposition Yposition Zposition Zrotation Xrotation Yrotation
        JOINT Neck
        {
          OFFSET 0 21.6535 1.9685
          CHANNELS 6 Xposition Yposition Zposition Zrotation Xrotation Yrotation
          JOINT Head
          {
            OFFSET 0 12.49 -1.78429
            CHANNELS 6 Xposition Yposition Zposition Zrotation Xrotation Yrotation
            End Site
            {
              OFFSET 0 22.3036 0
            }
          }
        }
        JOINT LeftShoulder
        {
          OFFSET 3.56546 21.4407 -0.045508
          CHANNELS 6 Xposition Yposition Zposition Zrotation Xrotation Yrotation
          JOINT LeftArm
          {
            OFFSET 5.86532 0 0
            CHANNELS 6 Xposition Yposition Zposition Zrotation Xrotation Yrotation
            JOINT LeftForeArm
            {
              OFFSET 30.0831 0 0
              CHANNELS 6 Xposition Yposition Zposition Zrotation Xrotation Yrotation
              JOINT LeftHand
              {
                OFFSET 21.3133 0 0
                CHANNELS 6 Xposition Yposition Zposition Zrotation Xrotation Yrotation
                End Site
                {
                  OFFSET 13.3822 0 0
                }
              }
            }
          }
        }
        JOINT RightShoulder
        {
          OFFSET -3.55605 21.4407 -0.045508
          CHANNELS 6 Xposition Yposition Zposition Zrotation Xrotation Yrotation
          JOINT RightArm
          {
            OFFSET -5.86532 0 0
            CHANNELS 6 Xposition Yposition Zposition Zrotation Xrotation Yrotation
            JOINT RightForeArm
            {
              OFFSET -30.0831 0 0
              CHANNELS 6 Xposition Yposition Zposition Zrotation Xrotation Yrotation
              JOINT RightHand
              {
                OFFSET -21.3133 0 0
                CHANNELS 6 Xposition Yposition Zposition Zrotation Xrotation Yrotation
                End Site
                {
                  OFFSET -13.3822 0 0
                }
              }
            }
          }
        }
      }
    }
    JOINT LeftUpLeg
    {
      OFFSET 8.92144 0 0
      CHANNELS 6 Xposition Yposition Zposition Zrotation Xrotation Yrotation
      JOINT LeftLeg
      {
        OFFSET 0 -39.6329 0
        CHANNELS 6 Xposition Yposition Zposition Zrotation Xrotation Yrotation
        JOINT LeftFoot
        {
          OFFSET 0 -38.0584 0
          CHANNELS 6 Xposition Yposition Zposition Zrotation Xrotation Yrotation
          JOINT LeftToeBase
          {
            OFFSET 0 -5.79894 13.3822
            CHANNELS 6 Xposition Yposition Zposition Zrotation Xrotation Yrotation
            End Site
            {
              OFFSET 0 0 3.56858
            }
          }
        }
      }
    }
    JOINT RightUpLeg
    {
      OFFSET -8.92144 0 0
      CHANNELS 6 Xposition Yposition Zposition Zrotation Xrotation Yrotation
      JOINT RightLeg
      {
        OFFSET 0 -39.6329 0
        CHANNELS 6 Xposition Yposition Zposition Zrotation Xrotation Yrotation
        JOINT RightFoot
        {
          OFFSET 0 -38.0584 0
          CHANNELS 6 Xposition Yposition Zposition Zrotation Xrotation Yrotation
          JOINT RightToeBase
          {
            OFFSET 0 -5.79894 13.3822
            CHANNELS 6 Xposition Yposition Zposition Zrotation Xrotation Yrotation
            End Site
            {
              OFFSET 0 0 3.56858
            }
          }
        }
      }
    }
  }
}
MOTION
Frames:	4
Frame Time:	0.004
0 0 0 0 0 -0 -15.3612 77.4965 -208.196 0.23186 -3.86942 10.5596 0 7.31558 0 0.381248 -1.56928 0.166542 -3.55271e-015 21.7428 2.84217e-014 -1.02 -5.1947 0.115116 -3.55271e-015 21.6535 1.9685 0.669087 22.2038 1.38876 0 12.49 -1.78429 -4.43233 1.61982 0.920762 3.56546 21.4407 -0.045508 14.3382 -1.30354 -5.93142 5.86532 -2.84217e-014 0 -21.1913 0.379424 2.3922 30.0831 -2.84217e-014 2.84217e-014 -0.740685 1.37777 3.96976 21.3133 -2.84217e-014 2.84217e-014 -5.17508 1.44377 -0.892635 -3.55605 21.4407 -0.045508 -11.5272 -1.96166 -6.89779 -5.86532 0 0 13.1109 2.4793 -0.17591 -30.0831 0 0 -2.04609 2.37524 -1.9017 -21.3133 0 0 0.562817 2.3527 2.31944 8.92144 0 0 -2.15245 7.35102 1.52945 0 -39.6329 -2.84217e-014 -2.52076 -0.518612 0.519426 0 -38.0584 0 6.46149 -4.47995 3.84459 0 -5.79894 13.3822 -9.93923e-017 5.96354e-016 -0 -8.92144 -1.42109e-014 0 -0.794196 9.68427 -0.249379 -3.55271e-015 -39.6329 0 3.03597 -0.169181 -0.518552 7.10543e-015 -38.0584 0 -3.24279 -6.71194 -11.8925 0 -5.79894 13.3822 -4.96962e-017 0 -0 
0 0 0 0 0 -0 -15.351 77.4965 -208.206 0.228685 -3.85509 10.5522 7.10543e-015 7.31558 0 0.422131 -1.6187 0.16999 0 21.7428 0 -1.17247 -5.12245 0.111521 0 21.6535 1.9685 0.954762 22.1705 1.38843 0 12.49 -1.78429 -4.58943 1.64941 0.908577 3.56546 21.4407 -0.045508 14.5459 -1.32655 -5.87651 5.86532 0 -2.84217e-014 -21.2822 0.319455 2.38296 30.0831 0 0 -0.723755 1.3874 3.98053 21.3133 2.84217e-014 0 -5.161 1.45545 -0.951693 -3.55605 21.4407 -0.045508 -11.2429 -2.14035 -6.86265 -5.86532 0 0 12.9317 2.63964 -0.23091 -30.0831 0 0 -2.03066 2.43352 -1.88853 -21.3133 0 0 0.578183 2.41129 2.21814 8.92144 1.42109e-014 2.84217e-014 -2.14648 7.32231 1.59372 0 -39.6329 2.84217e-014 -2.53485 -0.491489 0.369196 7.10543e-015 -38.0584 0 6.4557 -4.48994 3.93719 7.10543e-015 -5.79894 13.3822 -2.98177e-016 1.98785e-016 -0 -8.92144 1.42109e-014 2.84217e-014 -0.793724 9.65657 -0.272832 -3.55271e-015 -39.6329 0 3.03596 -0.163933 -0.540263 0 -38.0584 -2.84217e-014 -3.21762 -6.72121 -11.8641 0 -5.79894 13.3822 -3.10601e-017 1.98785e-016 3.97569e-016 
0 0 0 0 0 -0 -15.3365 77.4965 -208.211 0.229845 -3.86674 10.5378 0 7.31558 -2.84217e-014 0.432731 -1.62258 0.185538 0 21.7428 0 -1.17387 -5.11059 0.127029 -3.55271e-015 21.6535 1.9685 0.956637 22.2059 1.39643 0 12.49 -1.78429 -4.61222 1.64281 0.914237 3.56546 21.4407 -0.045508 14.5472 -1.35545 -5.8819 5.86532 0 2.84217e-014 -21.2781 0.347796 2.41218 30.0831 0 2.84217e-014 -0.72304 1.37103 3.99481 21.3133 0 0 -5.17238 1.43973 -0.963872 -3.55605 21.4407 -0.045508 -11.2477 -2.12084 -6.85902 -5.86532 2.84217e-014 2.84217e-014 12.9225 2.69545 -0.221916 -30.0831 -2.84217e-014 0 -2.06316 2.33684 -1.8983 -21.3133 0 -2.84217e-014 0.484943 2.31256 2.32878 8.92144 0 -2.84217e-014 -2.16567 7.34338 1.62407 0 -39.6329 2.84217e-014 -2.5229 -0.513422 0.396141 -7.10543e-015 -38.0584 0 6.37006 -4.51953 3.86731 -7.10543e-015 -5.79894 13.3822 2.48481e-016 0 -6.36111e-015 -8.92144 1.42109e-014 0 -0.811804 9.66471 -0.283179 0 -39.6329 0 3.0361 -0.15805 -0.509402 3.55271e-015 -38.0584 0 -3.2274 -6.73787 -11.859 0 -5.79894 13.3822 3.16813e-016 3.97569e-016 -0 
0 0 0 0 0 -0 -15.3241 77.4965 -208.216 0.226766 -3.87572 10.5355 -3.55271e-015 7.31558 -2.84217e-014 0.441437 -1.6318 0.193438 -3.55271e-015 21.7428 0 -1.16224 -5.08666 0.135691 -3.55271e-015 21.6535 1.9685 0.950619 22.2025 1.40346 -3.55271e-015 12.49 -1.78429 -4.62796 1.67299 0.920295 3.56546 21.4407 -0.045508 14.5445 -1.38836 -5.87024 5.86532 0 0 -21.272 0.350558 2.44045 30.0831 0 -2.84217e-014 -0.559179 1.5435 4.06122 21.3133 0 0 -5.9767 1.63223 -1.3198 -3.55605 21.4407 -0.045508 -11.2648 -2.12981 -6.86502 -5.86532 2.84217e-014 2.84217e-014 12.9142 2.73612 -0.212551 -30.0831 0 0 -2.07492 2.3187 -1.89957 -21.3133 0 0 0.492653 2.29443 2.3428 8.92144 0 -5.68434e-014 -2.16729 7.3507 1.61326 0 -39.6329 -2.84217e-014 -2.52864 -0.511807 0.366879 7.10543e-015 -38.0584 0 6.38593 -4.51872 3.91106 7.10543e-015 -5.79894 13.3822 9.93923e-017 1.98785e-016 6.36111e-015 -8.92144 1.42109e-014 0 -0.815565 9.66232 -0.335771 3.55271e-015 -39.6329 2.84217e-014 3.0336 -0.142306 -0.489371 -3.55271e-015 -38.0584 0 -3.07132 -6.73322 -11.8271 0 -5.79894 13.3822 -3.97569e-016 0 1.59028e-015 
